 <svg  version="1.0" xmlns="http://www.w3.org/2000/svg"  width="300.000000pt" height="300.000000pt" viewBox="0 0 300.000000 300.000000"  preserveAspectRatio="xMidYMid meet">  <g transform="translate(0.000000,300.000000) scale(0.100000,-0.100000)" fill="currentColor" stroke="none"> <path d="M1320 2904 c-154 -28 -209 -42 -294 -71 -207 -72 -377 -175 -530 -323 -223 -215 -352 -441 -423 -740 -36 -156 -43 -391 -15 -555 53 -308 186 -569 402 -786 111 -113 177 -164 296 -235 88 -52 105 -57 43 -12 -93 67 -175 161 -223 259 -63 128 -79 211 -73 369 11 259 96 461 267 631 62 61 96 86 177 127 56 27 126 56 156 62 l54 13 -34 51 c-156 238 -103 588 129 842 168 184 442 295 694 282 41 -2 74 -3 74 -2 0 6 -165 55 -230 69 -73 16 -411 30 -470 19z"/> <path d="M2576 2409 c9 -24 18 -87 21 -139 4 -89 3 -98 -24 -150 -18 -36 -43 -65 -71 -85 -38 -26 -54 -30 -120 -33 -66 -3 -83 0 -122 20 -55 30 -102 94 -135 184 -29 80 -62 118 -130 150 -118 56 -285 10 -362 -99 -44 -62 -64 -123 -70 -207 -14 -192 86 -309 278 -326 134 -12 201 -50 246 -137 74 -146 12 -341 -130 -414 -99 -50 -225 -40 -364 29 -59 29 -68 30 -146 25 -253 -16 -412 -185 -411 -437 0 -185 84 -300 262 -362 58 -20 86 -23 212 -23 171 0 266 18 415 76 142 55 253 127 355 229 93 94 149 179 200 309 38 96 67 134 120 161 128 65 287 -4 291 -127 l1 -28 14 33 c8 19 24 88 36 155 17 103 19 148 15 287 -9 271 -69 477 -205 705 -41 70 -140 201 -171 229 l-21 19 16 -44z"/> </g> </svg> 